<?xml version="1.0" standalone="no"?>
<!DOCTYPE svg PUBLIC "-//W3C//DTD SVG 20010904//EN"
 "http://www.w3.org/TR/2001/REC-SVG-20010904/DTD/svg10.dtd">
<svg version="1.0" xmlns="http://www.w3.org/2000/svg"
 width="1280.000000pt" height="960.000000pt" viewBox="0 0 1280.000000 960.000000"
 preserveAspectRatio="xMidYMid meet">

<g transform="translate(0.000000,960.000000) scale(0.100000,-0.100000)"
fill="#000000" stroke="none">
<path d="M8456 5876 c-27 -53 -52 -98 -56 -101 -5 -3 -36 -61 -70 -130 -33
-68 -71 -139 -83 -157 -12 -18 -38 -64 -57 -103 -18 -38 -40 -78 -48 -87 -23
-27 -62 -110 -62 -131 0 -10 -5 -17 -12 -15 -7 3 -21 40 -31 84 -10 43 -22 95
-27 114 -14 61 -30 155 -30 186 0 28 -22 99 -41 135 -16 32 -70 47 -182 53
-101 5 -108 4 -128 -17 -38 -41 -53 -88 -66 -214 -2 -29 -9 -53 -14 -53 -5 0
-9 -22 -9 -50 0 -27 -4 -50 -9 -50 -5 0 -12 -20 -15 -45 -3 -25 -9 -65 -12
-90 -3 -25 -10 -45 -14 -45 -4 0 -11 -21 -14 -47 -16 -118 -18 -133 -26 -133
-4 0 -11 -20 -14 -45 -3 -25 -9 -65 -12 -90 -3 -25 -10 -45 -14 -45 -4 0 -10
-19 -13 -42 -3 -24 -10 -65 -16 -93 -6 -27 -13 -66 -16 -85 -8 -50 -27 -110
-35 -110 -3 0 -11 5 -18 12 -15 15 -81 38 -110 38 -12 0 -31 5 -41 12 -21 13
-34 7 -145 -58 -32 -19 -64 -34 -72 -34 -7 0 -29 -9 -49 -20 -20 -11 -44 -20
-55 -20 -10 0 -21 -4 -24 -9 -3 -4 -26 -14 -51 -21 -25 -7 -48 -17 -51 -21 -3
-5 -16 -9 -29 -9 -13 0 -27 -4 -30 -10 -3 -5 -17 -10 -30 -10 -13 0 -27 -4
-30 -10 -3 -5 -17 -10 -30 -10 -13 0 -27 -4 -30 -10 -3 -5 -17 -10 -30 -10
-13 0 -27 -4 -30 -10 -3 -5 -18 -10 -32 -10 -20 0 -24 3 -18 18 8 16 14 52 35
202 21 150 22 153 65 177 22 12 49 23 59 23 11 0 33 4 50 9 29 9 59 17 154 40
252 63 377 112 422 166 17 21 17 149 0 170 -8 9 -29 15 -56 15 -23 0 -46 5
-49 10 -3 6 -30 10 -59 10 -53 0 -104 -18 -126 -45 -7 -8 -23 -15 -36 -15 -12
0 -26 -4 -29 -10 -3 -5 -17 -10 -30 -10 -13 0 -26 -4 -29 -8 -2 -4 -19 -9 -37
-10 -17 -1 -37 -6 -43 -10 -6 -3 -22 -8 -36 -9 -14 -2 -34 -8 -45 -12 -18 -9
-57 -18 -95 -24 -12 -2 -15 13 -14 88 1 50 6 133 10 185 l9 95 55 7 c30 4 91
11 135 16 78 10 206 33 275 51 74 20 157 44 195 57 175 59 197 72 229 136 31
61 32 83 8 121 -23 38 -79 57 -173 57 -66 0 -85 -4 -134 -30 -31 -16 -66 -30
-76 -30 -10 0 -19 -4 -19 -10 0 -5 -9 -10 -19 -10 -11 0 -23 -4 -26 -10 -3 -5
-17 -10 -30 -10 -13 0 -27 -4 -30 -10 -3 -5 -23 -10 -44 -10 -20 0 -41 -4 -47
-10 -11 -11 -141 -34 -194 -34 -19 0 -98 2 -176 3 -105 3 -146 0 -165 -10 -41
-24 -109 -92 -109 -111 0 -10 -4 -18 -10 -18 -5 0 -10 -11 -10 -24 0 -14 -3
-27 -8 -29 -4 -3 -8 -94 -10 -204 -2 -109 -7 -227 -12 -263 -5 -36 -10 -94
-10 -130 0 -53 -4 -67 -19 -77 -19 -12 -81 -97 -81 -112 0 -4 -13 -20 -30 -36
-16 -16 -30 -34 -30 -40 0 -7 -10 -20 -21 -31 -12 -10 -32 -35 -44 -54 -13
-19 -34 -46 -48 -60 -13 -14 -26 -31 -28 -37 -5 -12 -120 -141 -190 -212 -77
-77 -172 -151 -195 -151 -12 0 -32 78 -44 167 -13 100 -11 149 11 343 6 47 13
134 15 193 6 117 0 137 -42 137 -12 0 -26 5 -29 10 -3 6 -19 10 -35 10 -16 0
-32 5 -35 10 -8 13 -72 13 -80 0 -3 -5 -16 -10 -27 -10 -27 0 -148 -121 -148
-147 0 -11 -4 -23 -9 -29 -12 -12 -18 -66 -31 -239 -17 -251 5 -422 74 -575 6
-14 13 -27 16 -30 3 -3 17 -21 31 -40 15 -19 46 -45 70 -58 24 -12 51 -27 59
-31 80 -46 116 -56 194 -55 71 1 89 5 146 34 36 18 80 44 97 59 49 39 168 154
179 173 5 8 28 37 51 64 24 27 57 66 74 87 17 20 34 37 38 37 3 0 7 -37 7 -82
2 -83 2 -83 40 -115 20 -18 46 -33 56 -33 18 0 28 -4 75 -28 40 -21 85 -13
158 28 119 66 227 116 383 179 28 12 76 30 105 42 28 12 81 34 117 49 36 15
90 38 120 50 117 47 188 83 201 103 8 11 24 32 36 46 17 20 22 22 23 9 0 -29
48 -75 82 -81 18 -3 55 -10 82 -16 50 -11 93 -6 111 13 34 37 54 105 60 211 9
172 26 306 54 450 23 117 29 126 47 73 7 -18 22 -58 34 -88 12 -30 28 -69 34
-87 7 -18 20 -41 29 -51 9 -10 17 -24 17 -30 0 -7 9 -12 19 -12 11 0 23 -4 26
-10 3 -5 21 -10 40 -10 19 0 37 -4 40 -10 3 -5 26 -10 51 -10 40 0 50 5 81 39
37 42 143 243 143 273 0 9 5 20 10 23 6 3 10 15 10 26 0 13 7 19 21 19 16 0
19 -4 14 -17 -12 -31 -27 -184 -32 -328 -8 -219 18 -295 99 -295 21 0 38 -4
38 -10 0 -5 23 -10 50 -10 42 0 55 5 75 26 56 61 71 133 34 165 -20 17 -20 24
-15 206 5 177 10 246 36 438 6 44 15 123 21 175 33 325 37 358 50 366 5 3 9
15 9 28 0 12 5 27 11 33 8 8 5 22 -10 51 -11 22 -24 43 -28 45 -5 2 -49 8 -99
11 l-91 7 -47 -95z"/>
<path d="M5263 5666 c-48 -27 -123 -119 -123 -151 0 -7 -4 -15 -9 -17 -4 -1
-11 -25 -14 -52 -5 -46 -3 -52 25 -78 22 -21 40 -28 68 -28 22 0 42 -4 45 -10
3 -5 21 -10 38 -10 18 0 49 -5 69 -10 38 -11 85 -4 151 22 67 26 124 180 98
261 -20 61 -53 72 -236 81 -62 3 -97 1 -112 -8z"/>
<path d="M3544 5282 c5 -9 -16 -12 -77 -12 -46 0 -87 -3 -90 -7 -4 -3 -35 -8
-70 -11 -34 -2 -66 -7 -72 -11 -5 -5 -37 -9 -70 -10 -33 -1 -61 -7 -63 -12 -2
-5 -43 -10 -90 -10 -67 -2 -78 -3 -47 -9 22 -3 -77 -8 -220 -11 l-261 -4 -49
-35 c-27 -20 -64 -57 -83 -84 -29 -42 -34 -56 -33 -110 0 -46 4 -63 17 -71 9
-5 46 -29 82 -51 l65 -42 -2 -68 c-1 -38 -6 -73 -11 -79 -5 -5 -9 -37 -11 -70
-1 -33 -6 -65 -10 -70 -4 -6 -8 -42 -10 -80 -1 -39 -5 -75 -10 -80 -4 -6 -9
-55 -10 -110 -1 -55 -6 -105 -10 -110 -4 -6 -9 -60 -10 -120 0 -61 -5 -115 -9
-120 -5 -6 -10 -51 -11 -100 -1 -50 -5 -95 -10 -100 -4 -6 -9 -78 -9 -160 -1
-83 -6 -155 -12 -162 -5 -7 -6 -18 -2 -25 5 -7 16 -33 25 -58 34 -92 44 -115
59 -130 9 -8 31 -35 50 -60 69 -91 114 -115 225 -115 88 0 134 12 240 63 60
29 261 155 275 173 3 3 16 12 29 19 14 7 30 17 35 22 22 18 132 83 276 163
129 71 459 289 527 349 7 6 31 25 54 41 22 17 81 68 131 115 49 47 97 89 106
94 10 5 28 23 42 39 14 16 51 57 83 92 31 34 57 66 57 71 0 5 13 23 28 39 15
17 40 55 55 86 15 32 34 62 42 69 8 7 15 23 15 36 0 12 4 25 9 28 12 8 22 65
28 163 5 94 -4 127 -73 265 -45 90 -151 218 -180 218 -6 0 -17 7 -24 15 -15
19 -68 45 -90 45 -9 0 -20 4 -26 8 -5 5 -29 14 -54 21 -25 7 -54 17 -65 21
-11 5 -33 11 -50 14 -16 3 -68 12 -115 21 -110 20 -527 34 -516 17z m69 -9
c-7 -2 -19 -2 -25 0 -7 3 -2 5 12 5 14 0 19 -2 13 -5z m506 -352 c62 -20 108
-62 142 -128 19 -38 23 -61 23 -136 0 -62 -4 -92 -12 -95 -7 -2 -12 -17 -12
-33 0 -16 -4 -29 -10 -29 -5 0 -10 -9 -10 -20 0 -11 -4 -20 -10 -20 -5 0 -10
-8 -10 -18 0 -10 -9 -24 -20 -32 -11 -8 -20 -22 -20 -32 0 -10 -4 -18 -10 -18
-5 0 -10 -6 -10 -13 0 -7 -9 -23 -20 -35 -11 -12 -20 -26 -20 -31 0 -13 -128
-141 -141 -141 -5 0 -23 -13 -41 -30 -17 -16 -37 -30 -44 -30 -8 0 -14 -4 -14
-8 0 -5 -21 -20 -47 -33 -27 -13 -54 -30 -62 -37 -7 -7 -31 -21 -52 -30 -22
-9 -39 -20 -39 -24 0 -5 -9 -8 -20 -8 -11 0 -20 -4 -20 -9 0 -4 -48 -32 -107
-62 -60 -30 -109 -57 -111 -61 -2 -5 -12 -8 -23 -8 -10 0 -19 -4 -19 -10 0 -5
-9 -10 -20 -10 -11 0 -20 -4 -20 -9 0 -9 -398 -211 -417 -211 -21 0 -26 45
-19 183 9 212 31 425 75 757 6 41 15 111 20 155 17 141 23 164 40 170 16 4 86
19 326 68 187 39 244 44 480 45 187 1 228 -1 274 -17z"/>
</g>
</svg>
